# Blender 3.1.0
# www.blender.org
mtllib uitroepteken.mtl
o Family1
v 0.125000 0.650000 -0.125000
v 0.125000 0.650000 0.125000
v -0.125000 0.650000 0.125000
v -0.125000 0.650000 -0.125000
v 0.250000 1.500000 -0.250000
v -0.250000 1.500000 -0.250000
v -0.250000 1.500000 0.250000
v 0.250000 1.500000 0.250000
v 0.250000 1.500000 -0.250000
v 0.250000 1.500000 0.250000
v 0.125000 0.650000 0.125000
v 0.125000 0.650000 -0.125000
v 0.250000 1.500000 0.250000
v -0.250000 1.500000 0.250000
v -0.125000 0.650000 0.125000
v 0.125000 0.650000 0.125000
v -0.250000 1.500000 0.250000
v -0.250000 1.500000 -0.250000
v -0.125000 0.650000 -0.125000
v -0.125000 0.650000 0.125000
v -0.250000 1.500000 -0.250000
v 0.250000 1.500000 -0.250000
v 0.125000 0.650000 -0.125000
v -0.125000 0.650000 -0.125000
v 0.125000 0.500000 0.125000
v 0.125000 0.500000 -0.125000
v -0.125000 0.500000 -0.125000
v -0.125000 0.500000 0.125000
v 0.125000 0.250000 0.125000
v -0.125000 0.250000 0.125000
v -0.125000 0.250000 -0.125000
v 0.125000 0.250000 -0.125000
v 0.125000 0.500000 -0.125000
v 0.125000 0.500000 0.125000
v 0.125000 0.250000 0.125000
v 0.125000 0.250000 -0.125000
v -0.125000 0.500000 -0.125000
v 0.125000 0.500000 -0.125000
v 0.125000 0.250000 -0.125000
v -0.125000 0.250000 -0.125000
v -0.125000 0.500000 0.125000
v -0.125000 0.500000 -0.125000
v -0.125000 0.250000 -0.125000
v -0.125000 0.250000 0.125000
v 0.125000 0.500000 0.125000
v -0.125000 0.500000 0.125000
v -0.125000 0.250000 0.125000
v 0.125000 0.250000 0.125000
vn -0.0000 -0.3048 -0.0000
vn -0.0000 0.3048 -0.0000
vn 0.3016 -0.0443 -0.0000
vn -0.0000 -0.0443 0.3016
vn -0.3016 -0.0443 -0.0000
vn -0.0000 -0.0443 -0.3016
vn 0.3048 -0.0000 -0.0000
vn -0.0000 -0.0000 -0.3048
vn -0.3048 -0.0000 -0.0000
vn -0.0000 -0.0000 0.3048
vt 0.820210 -0.820210
vt 0.820210 0.000000
vt 0.000000 0.000000
vt 0.000000 -0.820210
vt 1.230315 1.230315
vt -0.410105 1.230315
vt -0.410105 -0.410105
vt 1.230315 -0.410105
vt -4.236414 1.230315
vt -4.236414 -0.410105
vt -1.417707 0.000000
vt -1.417707 0.820210
vt -1.230315 -4.117079
vt 0.410105 -4.117079
vt 0.000000 -1.298372
vt -0.820210 -1.298372
vt 4.117079 -0.410105
vt 4.117079 1.230315
vt 1.298372 0.820210
vt 1.298372 0.000000
vt 0.410105 4.236414
vt -1.230315 4.236414
vt -0.820210 1.417707
vt 0.000000 1.417707
vt 0.820210 0.000000
vt 0.820210 0.820210
vt 0.000000 0.820210
vt 0.000000 0.000000
vt 0.820210 0.000000
vt 0.000000 0.000000
vt 0.000000 -0.820210
vt 0.820210 -0.820210
vt 0.820210 0.820210
vt 0.000000 0.820210
vt 0.000000 0.000000
vt 0.820210 0.000000
vt 2.000000 0.820210
vt 1.179790 0.820210
vt 1.179790 0.000000
vt 2.000000 0.000000
vt 0.000000 0.820210
vt -0.820210 0.820210
vt -0.820210 0.000000
vt 0.000000 0.000000
vt -1.179790 0.820210
vt -2.000000 0.820210
vt -2.000000 0.000000
vt -1.179790 0.000000
s 1
usemtl RAL_2000_-_Geeloranje
f 1/1/1 2/2/1 3/3/1
f 3/3/1 4/4/1 1/1/1
f 8/8/2 5/5/2 6/6/2
f 6/6/2 7/7/2 8/8/2
f 12/12/3 9/9/3 11/11/3
f 10/10/3 11/11/3 9/9/3
f 16/16/4 13/13/4 15/15/4
f 14/14/4 15/15/4 13/13/4
f 20/20/5 17/17/5 19/19/5
f 18/18/5 19/19/5 17/17/5
f 24/24/6 21/21/6 23/23/6
f 22/22/6 23/23/6 21/21/6
f 28/28/2 25/25/2 26/26/2
f 26/26/2 27/27/2 28/28/2
f 31/31/1 32/32/1 29/29/1
f 29/29/1 30/30/1 31/31/1
f 33/33/7 34/34/7 35/35/7
f 35/35/7 36/36/7 33/33/7
f 37/37/8 38/38/8 39/39/8
f 39/39/8 40/40/8 37/37/8
f 41/41/9 42/42/9 43/43/9
f 43/43/9 44/44/9 41/41/9
f 45/45/10 46/46/10 47/47/10
f 47/47/10 48/48/10 45/45/10
